# xmcd
#
# Track frame offsets:
#	182
#	17067
#	31840
#	47842
#	61840
#	74762
#	91610
#	105220
#	124267
#	140307
#	153797
#	168105
#	184057
#	200372
#	216137
#	233560
#	252330
#	268360
#	283110
#
# Disc length: 4041
#
# Revision: 1
# Processed by: cddbd v1.5.1PL0 Copyright (c) Steve Scherf et al.
# Submitted via: CDex 1.40PlusFr
# Normalized: r0:TRMNUM
#
DISCID=040fc713
DTITLE=Golden Gate Quartet - Good Time
DYEAR=1988
DGENRE=Blues
TTITLE0=You better mind
TTITLE1=Good time
TTITLE2=La novia
TTITLE3=Frankie and Johny
TTITLE4=I'm troubled
TTITLE5=This train
TTITLE6=Hallelujah I love her so
TTITLE7=Joseph
TTITLE8=Slow thinking man
TTITLE9=Set down servant
TTITLE10=don't let go
TTITLE11=Only you
TTITLE12=Working on a building
TTITLE13=Many thousand gone
TTITLE14=Midnight train
TTITLE15=Who is god
TTITLE16=No man is an island
TTITLE17=Les copains d'abord
TTITLE18=Remember me
EXTD=YEAR: 1988 ID3G: 0
EXTT0=
EXTT1=
EXTT2=
EXTT3=
EXTT4=
EXTT5=
EXTT6=
EXTT7=
EXTT8=
EXTT9=
EXTT10=
EXTT11=
EXTT12=
EXTT13=
EXTT14=
EXTT15=
EXTT16=
EXTT17=
EXTT18=
PLAYORDER=
